<mxfile host="app.diagrams.net" modified="2023-08-07T05:21:11.812Z" agent="Mozilla/5.0 (Linux; Android 10; K) AppleWebKit/537.36 (KHTML, like Gecko) Chrome/115.0.0.0 Mobile Safari/537.36" etag="K-LVmoYAjFw6B9XbA6n7" version="21.6.6" type="github" pages="2">
  <diagram name="第 1 页" id="tIgkax7is4ck6uCoKwPF">
    <mxGraphModel dx="299" dy="204" grid="0" gridSize="10" guides="1" tooltips="1" connect="1" arrows="1" fold="1" page="0" pageScale="1" pageWidth="827" pageHeight="1169" math="0" shadow="0">
      <root>
        <mxCell id="0" />
        <mxCell id="1" parent="0" />
        <mxCell id="pHDUc5e3L5fhXZrM-_ks-3" style="edgeStyle=none;curved=1;rounded=0;orthogonalLoop=1;jettySize=auto;html=1;fontSize=12;startSize=8;endSize=8;" edge="1" parent="1" source="pHDUc5e3L5fhXZrM-_ks-1" target="pHDUc5e3L5fhXZrM-_ks-2">
          <mxGeometry relative="1" as="geometry" />
        </mxCell>
        <mxCell id="pHDUc5e3L5fhXZrM-_ks-1" value="ssss" style="whiteSpace=wrap;html=1;fontSize=16;" vertex="1" parent="1">
          <mxGeometry x="147" y="459" width="117" height="60" as="geometry" />
        </mxCell>
        <mxCell id="pHDUc5e3L5fhXZrM-_ks-2" value="ssbs" style="ellipse;whiteSpace=wrap;html=1;fontSize=16;" vertex="1" parent="1">
          <mxGeometry x="315" y="447" width="80" height="80" as="geometry" />
        </mxCell>
      </root>
    </mxGraphModel>
  </diagram>
  <diagram id="7dMyMM2G300KQRSnh5SK" name="第 2 页">
    <mxGraphModel dx="574" dy="270" grid="0" gridSize="10" guides="1" tooltips="1" connect="1" arrows="1" fold="1" page="0" pageScale="1" pageWidth="827" pageHeight="1169" math="0" shadow="0">
      <root>
        <mxCell id="0" />
        <mxCell id="1" parent="0" />
      </root>
    </mxGraphModel>
  </diagram>
</mxfile>
